<svg width="24" height="24" viewBox="0 0 24 24" fill="none" xmlns="http://www.w3.org/2000/svg">
<rect x="8" y="7" width="2" height="2" fill="white"/>
<rect x="14" y="7" width="2" height="2" fill="white"/>
<path d="M17 9C19.2091 9 21 10.7909 21 13V17C21 19.2091 19.2091 21 17 21H7C4.79086 21 3 19.2091 3 17V13C3 10.7909 4.79086 9 7 9H17ZM12 11C10.8954 11 10 11.8954 10 13C10 13.7534 10.4169 14.409 11.0322 14.75C11.0116 14.83 11 14.9136 11 15V18C11 18.5523 11.4477 19 12 19C12.5523 19 13 18.5523 13 18V15C13 14.9135 12.9874 14.83 12.9668 14.75C13.5826 14.4091 14 13.7537 14 13C14 11.8954 13.1046 11 12 11Z" fill="white"/>
<path d="M12 3C14.2091 3 16 4.79086 16 7H14C14 5.89543 13.1046 5 12 5C10.8954 5 10 5.89543 10 7H8C8 4.79086 9.79086 3 12 3Z" fill="white"/>
</svg>
